<?xml version="1.0" encoding="UTF-8"?>
<svg id="Layer_1" data-name="Layer 1" xmlns="http://www.w3.org/2000/svg" viewBox="0 0 4755.06 1548.97">
  <defs>
    <style>
      .cls-1 {
        fill: #a1a1a1;
      }
    </style>
  </defs>
  <polygon class="cls-1" points="101.17 276.48 101.17 412.54 0 344.51 101.17 276.48"/>
  <polygon points="537.26 1518.45 715.18 1518.45 715.18 388.11 1095.44 388.11 1095.44 311.36 153.5 311.36 153.5 381.14 537.26 381.14 537.26 1518.45"/>
  <path d="m1664.1,953.28s310.49-6.98,233.74-397.71c0,0-66.28-163.97-184.9-167.46h-300.03v1130.33h-184.9V311.36h467.48s219.79-17.44,359.33,181.41c0,0,153.5,300.03-132.57,460.5,0,0-34.89,31.4-136.06,52.33l380.27,512.83h-90.71l-411.66-565.17Z"/>
  <polygon class="cls-1" points="1449.54 960.26 1486.17 960.26 1917.03 1518.45 1883.88 1518.45 1449.54 960.26"/>
  <polygon class="cls-1" points="1557.69 960.26 1599.56 960.26 2019.94 1518.45 1992.03 1518.45 1557.69 960.26"/>
  <rect class="cls-1" x="2303.4" y="310.98" width="34.01" height="1207.47"/>
  <rect class="cls-1" x="2476.09" y="310.98" width="34.01" height="1207.47"/>
  <rect class="cls-1" x="2391.05" y="310.98" width="28.78" height="534.16"/>
  <rect class="cls-1" x="2391.05" y="984.29" width="28.78" height="534.16"/>
  <polygon class="cls-1" points="2441.69 968.08 2404.87 956.42 2367.58 966.47 2379.24 929.65 2369.19 892.35 2406.01 904.01 2443.31 893.97 2431.65 930.79 2441.69 968.08"/>
  <polygon points="2826.7 310.98 2638.31 310.98 3070.03 1331.8 3172.08 1119.86 2826.7 310.98"/>
  <polygon class="cls-1" points="3088.35 1357.97 3070.03 1331.8 3541 310.98 3575.02 310.98 3088.35 1357.97"/>
  <polygon class="cls-1" points="3135.7 1450.85 3115.82 1422.37 3627.06 310.98 3663.98 310.98 3135.7 1450.85"/>
  <polygon class="cls-1" points="3186.04 1537.63 3164.23 1506.98 3725.11 310.98 3765.62 310.98 3186.04 1537.63"/>
  <polygon points="4584.12 379.39 4035.52 379.39 4035.52 880.91 4448.93 880.91 4448.93 949.79 4025.06 949.79 4035.52 1450.85 4584.12 1450.85 4584.12 1522.81 3854.98 1522.81 3854.98 310.98 4584.12 310.98 4584.12 379.39"/>
  <polygon class="cls-1" points="4647.78 1420.76 4647.78 1548.97 4755.06 1484.87 4647.78 1420.76"/>
  <polygon class="cls-1" points="4202.98 225.02 4116.63 225.02 4284.09 0 4448.93 0 4202.98 225.02"/>
</svg>