<?xml version="1.0" encoding="UTF-8"?>
<svg id="Layer_1" data-name="Layer 1" xmlns="http://www.w3.org/2000/svg" viewBox="0 0 687.93 224.1">
  <defs>
    <style>
      .cls-1 {
        fill: #a1a1a1;
      }
    </style>
  </defs>
  <polygon class="cls-1" points="14.64 40 14.64 59.68 0 49.84 14.64 40"/>
  <polygon points="77.73 219.68 103.47 219.68 103.47 56.15 158.48 56.15 158.48 45.05 22.21 45.05 22.21 55.14 77.73 55.14 77.73 219.68"/>
  <path d="m240.75,137.91s44.92-1.01,33.82-57.54c0,0-9.59-23.72-26.75-24.23h-43.41v163.53h-26.75V45.05h67.63s31.8-2.52,51.99,26.25c0,0,22.21,43.41-19.18,66.62,0,0-5.05,4.54-19.68,7.57l55.01,74.19h-13.12l-59.56-81.76Z"/>
  <polygon class="cls-1" points="209.71 138.92 215.01 138.92 277.34 219.68 272.55 219.68 209.71 138.92"/>
  <polygon class="cls-1" points="225.36 138.92 231.41 138.92 292.23 219.68 288.2 219.68 225.36 138.92"/>
  <rect class="cls-1" x="333.24" y="44.99" width="4.92" height="174.69"/>
  <rect class="cls-1" x="358.23" y="44.99" width="4.92" height="174.69"/>
  <rect class="cls-1" x="345.92" y="44.99" width="4.16" height="77.28"/>
  <rect class="cls-1" x="345.92" y="142.4" width="4.16" height="77.28"/>
  <polygon class="cls-1" points="353.25 140.06 347.92 138.37 342.53 139.82 344.21 134.5 342.76 129.1 348.09 130.79 353.48 129.33 351.8 134.66 353.25 140.06"/>
  <polygon points="408.95 44.99 381.7 44.99 444.15 192.68 458.92 162.02 408.95 44.99"/>
  <polygon class="cls-1" points="446.8 196.46 444.15 192.68 512.29 44.99 517.21 44.99 446.8 196.46"/>
  <polygon class="cls-1" points="453.66 209.9 450.78 205.78 524.74 44.99 530.08 44.99 453.66 209.9"/>
  <polygon class="cls-1" points="460.94 222.46 457.78 218.02 538.93 44.99 544.79 44.99 460.94 222.46"/>
  <polygon points="663.2 54.89 583.84 54.89 583.84 127.45 643.65 127.45 643.65 137.41 582.32 137.41 583.84 209.9 663.2 209.9 663.2 220.31 557.72 220.31 557.72 44.99 663.2 44.99 663.2 54.89"/>
  <polygon class="cls-1" points="672.41 205.55 672.41 224.1 687.93 214.82 672.41 205.55"/>
  <polygon class="cls-1" points="608.06 32.55 595.57 32.55 619.8 0 643.65 0 608.06 32.55"/>
</svg>